<svg xmlns="http://www.w3.org/2000/svg" viewBox="0 0 1080 1080"><rect width="1080" height="1080" rx="540" fill="#BD1800"/><path d="M150.81 682.875C138.41 682.875 127.841 679.916 119.105 673.997C110.368 667.938 106 660.752 106 652.438C106 645.956 108.184 641.376 112.552 638.699C116.921 636.022 121.289 634.683 125.657 634.683C128.053 634.683 130.378 635.458 132.632 637.008C135.028 638.417 136.226 640.883 136.226 644.406C136.226 647.083 135.028 649.479 132.632 651.593C130.378 653.706 127.63 654.763 124.389 654.763C122.557 654.763 120.725 654.693 118.893 654.552C117.202 654.27 115.652 653.636 114.243 652.649V653.918C114.243 660.822 117.696 666.459 124.6 670.827C131.505 675.195 140.805 677.379 152.501 677.379C159.546 677.379 166.451 676.393 173.215 674.42C180.119 672.307 187.799 668.361 196.254 662.584C204.708 656.665 214.854 648.14 226.691 637.008C238.527 625.735 252.9 611.151 269.81 593.255C286.719 575.219 307.081 552.955 330.895 526.463C357.809 495.604 383.243 470.521 407.198 451.216C431.153 431.912 452.642 417.186 471.665 407.041C463.915 399.15 453.065 393.161 439.115 389.074C425.305 384.847 409.382 382.733 391.346 382.733C381.482 382.733 370.914 383.79 359.641 385.904C348.509 387.877 338.011 390.695 328.147 394.359C311.238 400.559 294.61 409.013 278.264 419.723C262.059 430.432 247.405 442.128 234.3 454.81C221.195 467.492 210.768 480.103 203.018 492.644C195.267 505.186 191.392 516.458 191.392 526.463C191.392 534.918 194.211 541.118 199.847 545.063C205.483 549.009 212.318 550.982 220.35 550.982C232.327 550.982 245.573 547.459 260.087 540.413C274.741 533.368 288.903 523.645 302.571 511.245C316.24 498.845 327.936 484.542 337.658 468.337C347.522 451.991 353.722 434.589 356.259 416.129C356.822 413.311 357.245 411.479 357.527 410.634C357.809 409.788 358.372 409.366 359.218 409.366C360.768 409.366 361.543 410.916 361.543 414.016C361.543 434.448 357.245 453.33 348.65 470.662C340.054 487.853 328.711 502.79 314.619 515.472C300.528 528.154 285.028 538.018 268.119 545.063C251.35 552.109 234.723 555.632 218.236 555.632C209.781 555.632 202.102 553.307 195.197 548.657C188.433 543.866 185.051 536.257 185.051 525.829C185.051 512.161 188.856 498.351 196.465 484.401C204.215 470.31 214.854 456.923 228.382 444.241C241.909 431.559 257.55 420.286 275.305 410.423C293.06 400.418 312.013 392.527 332.163 386.749C352.454 380.972 373.027 378.083 393.882 378.083C431.928 378.083 461.238 385.974 481.811 401.757C492.943 396.402 502.948 392.527 511.825 390.131C520.702 387.736 528.312 386.538 534.653 386.538C539.303 386.538 541.628 387.243 541.628 388.652C541.628 389.497 539.373 390.272 534.864 390.977C530.496 391.54 524.225 392.879 516.052 394.993C507.879 397.106 498.298 400.982 487.306 406.618C500.552 419.159 507.175 434.8 507.175 453.541C507.175 466.083 503.3 478.412 495.55 490.531C487.8 502.508 477.513 513.429 464.69 523.293C452.008 533.156 438.269 541.118 423.474 547.177C434.746 557.182 440.383 571.343 440.383 589.662C440.383 601.639 437.001 613.194 430.237 624.326C423.614 635.458 414.596 645.463 403.182 654.34C391.909 663.077 379.157 670.052 364.925 675.266C350.693 680.338 335.968 682.875 320.749 682.875C307.222 682.875 297.992 680.268 293.06 675.054C288.128 669.841 285.662 664.627 285.662 659.413C285.662 652.086 288.833 644.054 295.174 635.317C301.515 626.581 309.969 618.267 320.538 610.376C331.106 602.485 342.872 596.003 355.836 590.93C368.8 585.857 381.905 583.321 395.15 583.321C398.109 583.321 399.589 584.166 399.589 585.857C399.589 587.83 397.405 588.816 393.037 588.816C382.046 588.816 370.632 591.142 358.795 595.792C347.1 600.301 336.249 606.149 326.245 613.335C316.24 620.522 308.137 628.201 301.937 636.374C295.737 644.547 292.637 652.297 292.637 659.624C292.637 663.852 294.61 667.797 298.556 671.461C302.501 675.125 310.181 676.957 321.595 676.957C331.599 676.957 342.168 674.068 353.3 668.291C364.432 662.513 374.859 654.481 384.582 644.195C394.305 633.908 402.196 622.001 408.255 608.474C414.455 594.805 417.555 580.08 417.555 564.298C417.555 558.661 416.498 554.152 414.385 550.77C407.48 553.025 400.505 554.857 393.459 556.266C386.414 557.534 379.509 558.168 372.745 558.168C366.263 558.168 361.332 557.111 357.95 554.998C354.568 552.884 352.877 550.7 352.877 548.445C352.877 545.063 356.4 541.963 363.445 539.145C370.491 536.327 378.523 534.918 387.541 534.918C397.123 534.918 405.719 536.82 413.328 540.625C425.164 534.847 436.578 527.027 447.569 517.163C458.56 507.299 467.579 495.744 474.624 482.499C481.67 469.112 485.193 454.528 485.193 438.746C485.193 428.882 482.234 420.145 476.315 412.536C473.215 414.368 469.974 416.411 466.592 418.666C463.351 420.92 459.97 423.316 456.447 425.852C444.751 434.589 433.196 444.382 421.783 455.232C410.369 466.083 398.462 478.765 386.062 493.279C373.661 507.792 360.134 524.913 345.479 544.641C318.988 580.15 293.271 608.544 268.33 629.822C243.53 651.099 219.856 666.388 197.311 675.688C189.56 678.788 181.81 680.761 174.06 681.607C166.451 682.452 158.701 682.875 150.81 682.875ZM372.957 551.404C383.102 551.404 394.375 548.798 406.776 543.584C402.266 541.047 395.925 539.779 387.752 539.779C381.13 539.779 375.423 540.554 370.632 542.104C365.982 543.513 363.657 545.063 363.657 546.754C363.657 547.741 364.502 548.798 366.193 549.925C368.025 550.911 370.279 551.404 372.957 551.404ZM473.145 682.875C464.126 682.875 457.504 680.409 453.276 675.477C449.19 670.545 447.147 663.781 447.147 655.186C447.147 645.745 449.119 635.67 453.065 624.96C457.151 614.251 463.845 603.612 473.145 593.044C492.168 570.921 509.923 556.195 526.409 548.868C543.037 541.4 558.608 537.666 573.121 537.666C580.449 537.666 586.649 539.216 591.722 542.316C596.795 545.416 599.331 549.643 599.331 554.998C599.331 559.084 598.486 563.241 596.795 567.468C601.304 562.114 605.108 557.464 608.208 553.518C611.449 549.432 614.549 545.557 617.509 541.893C621.172 543.02 625.4 543.584 630.191 543.584C632.163 543.584 634.841 543.513 638.223 543.373C641.604 543.232 644.211 543.02 646.043 542.738L574.812 628.554C565.794 639.263 559.312 647.999 555.367 654.763C551.421 661.386 549.448 666.529 549.448 670.193C549.448 674.702 551.632 676.957 556.001 676.957C563.61 676.957 571.501 674.772 579.674 670.404C587.847 665.895 595.879 660.188 603.77 653.283C611.661 646.238 619.059 638.981 625.963 631.513C632.868 623.903 638.927 616.928 644.141 610.587C649.496 604.105 653.582 599.314 656.4 596.214L660.628 599.808C657.527 603.33 653.159 608.403 647.523 615.026C641.886 621.649 635.404 628.835 628.077 636.585C620.89 644.336 613.07 651.733 604.615 658.779C596.301 665.825 587.706 671.602 578.828 676.111C570.092 680.62 561.426 682.875 552.83 682.875C538.739 682.875 531.694 678.507 531.694 669.77C531.694 666.529 532.257 663.288 533.384 660.047C534.653 656.665 537.119 652.368 540.782 647.154C544.446 641.799 549.942 634.683 557.269 625.806L555.155 624.96C537.964 646.097 522.041 661.034 507.386 669.77C492.872 678.507 481.459 682.875 473.145 682.875ZM473.99 676.534C483.009 676.534 494.916 671.32 509.711 660.893C524.507 650.324 542.262 632.781 562.976 608.262C566.358 604.176 569.458 600.371 572.276 596.848C575.235 593.326 578.053 590.014 580.731 586.914C583.972 581.982 586.86 576.839 589.397 571.484C592.074 566.13 593.413 561.268 593.413 556.9C593.413 552.532 591.863 549.361 588.763 547.389C585.663 545.275 582.281 544.218 578.617 544.218C571.712 544.218 560.51 549.22 545.01 559.225C529.65 569.089 512.741 584.941 494.282 606.783C483.713 619.465 476.104 630.738 471.454 640.601C466.804 650.465 464.479 658.779 464.479 665.543C464.479 672.87 467.649 676.534 473.99 676.534ZM659.359 682.875C650.482 682.875 643.789 680.409 639.279 675.477C634.77 670.545 632.516 663.781 632.516 655.186C632.516 645.745 634.559 635.67 638.645 624.96C642.873 614.251 649.636 603.612 658.937 593.044C677.96 570.921 695.996 556.195 713.047 548.868C730.097 541.4 745.527 537.666 759.336 537.666C765.113 537.666 770.82 539.145 776.457 542.104C782.234 544.923 785.123 549.22 785.123 554.998C785.123 555.561 785.052 556.125 784.911 556.689C784.911 557.252 784.911 557.886 784.911 558.591C796.184 542.245 809.5 523.011 824.86 500.888C840.219 478.624 857.129 454.316 875.588 427.966C894.188 401.616 913.705 374.067 934.137 345.321C936.109 346.167 938.646 346.942 941.746 347.647C944.846 348.351 948.228 348.703 951.892 348.703C954.428 348.703 957.458 348.492 960.98 348.069L760.181 629.61C752.009 640.461 745.809 649.127 741.581 655.609C737.495 662.09 735.452 667.163 735.452 670.827C735.452 674.632 737.213 676.534 740.736 676.534C750.036 676.534 759.406 674.138 768.848 669.347C778.289 664.415 787.307 658.286 795.903 650.958C804.498 643.49 812.319 635.881 819.364 628.131C826.551 620.381 832.54 613.617 837.33 607.84C842.121 601.921 845.292 598.187 846.842 596.637L851.492 600.23C849.66 602.062 846.137 606.008 840.924 612.067C835.851 618.126 829.439 625.172 821.689 633.204C814.08 641.095 805.625 648.845 796.325 656.454C787.166 664.063 777.514 670.404 767.368 675.477C757.363 680.409 747.359 682.875 737.354 682.875C730.449 682.875 725.517 681.536 722.558 678.859C719.599 676.182 718.119 672.729 718.119 668.502C718.26 660.047 726.715 645.815 743.483 625.806L741.793 624.96C722.629 646.238 706.212 661.245 692.544 669.981C679.016 678.577 667.955 682.875 659.359 682.875ZM660.839 676.534C666.475 676.534 673.38 674.35 681.553 669.981C689.726 665.613 700.294 657.581 713.258 645.886C718.754 640.672 724.531 635.035 730.59 628.976C736.649 622.917 742.92 616.012 749.402 608.262C751.375 605.867 754.404 601.78 758.491 596.003C762.718 590.085 767.861 582.757 773.92 574.021C777.161 567.257 778.782 561.55 778.782 556.9C778.782 552.532 777.091 549.361 773.709 547.389C770.327 545.275 766.663 544.218 762.718 544.218C755.813 544.218 744.963 549.291 730.167 559.436C715.513 569.441 698.955 585.364 680.496 607.205C669.928 620.028 662.248 631.301 657.457 641.024C652.666 650.606 650.271 658.779 650.271 665.543C650.271 672.87 653.793 676.534 660.839 676.534Z" fill="white"/></svg>
